<?xml version="1.0" encoding="UTF-8"?><svg id="Layer_1" xmlns="http://www.w3.org/2000/svg" xmlns:xlink="http://www.w3.org/1999/xlink" viewBox="0 0 450 100"><defs><style>.cls-1{fill:url(#linear-gradient-8);}.cls-2{fill:url(#linear-gradient-7);}.cls-3{fill:url(#linear-gradient-5);}.cls-4{fill:url(#linear-gradient-6);}.cls-5{fill:url(#linear-gradient-9);}.cls-6{fill:url(#linear-gradient-4);}.cls-7{fill:url(#linear-gradient-3);}.cls-8{fill:url(#linear-gradient-2);}.cls-9{fill:url(#linear-gradient);}.cls-10{fill:#fff;}.cls-11{fill:url(#linear-gradient-13);}.cls-11,.cls-12,.cls-13,.cls-14,.cls-15{opacity:.48;}.cls-12{fill:url(#linear-gradient-12);}.cls-13{fill:url(#linear-gradient-14);}.cls-14{fill:url(#linear-gradient-16);}.cls-15{fill:url(#linear-gradient-15);}.cls-16{fill:url(#linear-gradient-10);}.cls-17{fill:url(#linear-gradient-11);}.cls-18{fill:url(#linear-gradient-17);}.cls-19{fill:url(#linear-gradient-18);}</style><linearGradient id="linear-gradient" x1="127.6" y1="60.75" x2="123.58" y2="15.6" gradientUnits="userSpaceOnUse"><stop offset="0" stop-color="#f28c1b"/><stop offset=".06" stop-color="#f0861b"/><stop offset=".7" stop-color="#e24826"/><stop offset="1" stop-color="#dd312a"/></linearGradient><linearGradient id="linear-gradient-2" x1="103.9" y1="21.39" x2="147.29" y2="21.39" xlink:href="#linear-gradient"/><linearGradient id="linear-gradient-3" x1="8.78" y1="32.59" x2="48.6" y2="32.59" xlink:href="#linear-gradient"/><linearGradient id="linear-gradient-4" x1="19.66" y1="52.12" x2="15.59" y2="17.73" xlink:href="#linear-gradient"/><linearGradient id="linear-gradient-5" x1="166.57" y1="58.35" x2="167.19" y2="23.76" xlink:href="#linear-gradient"/><linearGradient id="linear-gradient-6" x1="160.62" y1="24.4" x2="176.22" y2="2.27" xlink:href="#linear-gradient"/><linearGradient id="linear-gradient-7" x1="54.23" y1="67.36" x2="79.64" y2="25.48" xlink:href="#linear-gradient"/><linearGradient id="linear-gradient-8" x1="47.69" y1="36.26" x2="102.97" y2="36.26" xlink:href="#linear-gradient"/><linearGradient id="linear-gradient-9" x1="195.76" y1="9.57" x2="259.98" y2="7.68" gradientTransform="translate(459.57 17.14) rotate(-180)" gradientUnits="userSpaceOnUse"><stop offset="0" stop-color="#ef7d1d"/><stop offset=".15" stop-color="#ed781e"/><stop offset=".32" stop-color="#e96a22"/><stop offset=".5" stop-color="#e35329"/><stop offset=".56" stop-color="#e14a2c"/><stop offset=".57" stop-color="#d64f47"/><stop offset=".6" stop-color="#c8576e"/><stop offset=".63" stop-color="#bb5f91"/><stop offset=".67" stop-color="#b065ae"/><stop offset=".7" stop-color="#a76ac6"/><stop offset=".74" stop-color="#a06ed8"/><stop offset=".79" stop-color="#9b70e5"/><stop offset=".86" stop-color="#9872ec"/><stop offset="1" stop-color="#9873ef"/></linearGradient><linearGradient id="linear-gradient-10" x1="197.04" y1="53.12" x2="261.26" y2="51.23" gradientTransform="translate(459.57 104.32) rotate(-180)" xlink:href="#linear-gradient-9"/><linearGradient id="linear-gradient-11" x1="196.08" y1="20.33" x2="260.29" y2="18.44" gradientTransform="translate(463.64 38.56) rotate(-180)" xlink:href="#linear-gradient-9"/><linearGradient id="linear-gradient-12" x1="236.5" y1="19.28" x2="180.5" y2="19.28" gradientTransform="translate(408.23 38.56) rotate(-180)" gradientUnits="userSpaceOnUse"><stop offset="0" stop-color="#f28c1b"/><stop offset=".22" stop-color="#ed761e" stop-opacity=".76"/><stop offset=".6" stop-color="#e45124" stop-opacity=".36"/><stop offset=".87" stop-color="#df3a28" stop-opacity=".1"/><stop offset="1" stop-color="#dd312a" stop-opacity="0"/></linearGradient><linearGradient id="linear-gradient-13" x1="236.5" y1="8.55" x2="180.5" y2="8.55" gradientTransform="translate(413.21 17.1) rotate(-180)" xlink:href="#linear-gradient-12"/><linearGradient id="linear-gradient-14" x1="236.5" y1="30.16" x2="180.5" y2="30.16" gradientTransform="translate(421.91 60.33) rotate(-180)" xlink:href="#linear-gradient-12"/><linearGradient id="linear-gradient-15" x1="236.5" y1="41.05" x2="180.5" y2="41.05" gradientTransform="translate(408.23 82.09) rotate(-180)" xlink:href="#linear-gradient-12"/><linearGradient id="linear-gradient-16" x1="236.5" y1="51.98" x2="180.5" y2="51.98" gradientTransform="translate(418.1 103.96) rotate(-180)" xlink:href="#linear-gradient-12"/><linearGradient id="linear-gradient-17" x1="196.72" y1="42.24" x2="260.94" y2="40.36" gradientTransform="translate(463.14 82.44) rotate(-180)" xlink:href="#linear-gradient-9"/><linearGradient id="linear-gradient-18" x1="196.4" y1="31.43" x2="260.62" y2="29.54" gradientTransform="translate(480.13 60.3) rotate(-180)" xlink:href="#linear-gradient-9"/></defs><path class="cls-10" d="M9.7,78.4v11.71h-1.42v-11.71h1.42Z"/><path class="cls-10" d="M25.84,78.4v11.71h-1.37l-6.38-9.19h-.11v9.19h-1.42v-11.71h1.37l6.4,9.21h.11v-9.21h1.39Z"/><path class="cls-10" d="M39.1,81.32c-.07-.58-.35-1.03-.83-1.35-.49-.32-1.09-.48-1.79-.48-.52,0-.97.08-1.36.25-.39.17-.69.4-.9.69-.21.29-.32.63-.32,1,0,.31.08.58.23.8s.34.41.58.55.48.27.74.36c.26.09.5.17.71.23l1.19.32c.3.08.64.19,1.02.33s.73.33,1.08.57c.34.24.63.55.85.93s.34.84.34,1.39c0,.63-.16,1.2-.49,1.71s-.81.92-1.44,1.22c-.63.3-1.4.45-2.29.45-.84,0-1.56-.14-2.18-.41s-1.09-.65-1.44-1.13c-.35-.48-.55-1.05-.59-1.69h1.46c.04.44.19.81.45,1.09.26.29.59.5.99.64.4.14.84.21,1.3.21.54,0,1.03-.09,1.46-.27.43-.18.77-.42,1.02-.74.25-.32.38-.69.38-1.12,0-.39-.11-.71-.33-.95-.22-.24-.5-.44-.86-.59s-.74-.29-1.15-.4l-1.44-.41c-.91-.26-1.64-.64-2.17-1.13-.53-.49-.8-1.13-.8-1.92,0-.66.18-1.23.53-1.72.36-.49.84-.87,1.44-1.14s1.28-.41,2.03-.41,1.43.13,2.01.4c.59.27,1.05.64,1.4,1.1.34.46.53.99.54,1.58h-1.37Z"/><path class="cls-10" d="M48.4,78.4v11.71h-1.42v-11.71h1.42Z"/><path class="cls-10" d="M63.26,82.06c-.13-.38-.29-.73-.49-1.04-.21-.31-.45-.57-.73-.79s-.6-.38-.95-.5c-.36-.11-.74-.17-1.17-.17-.69,0-1.32.18-1.89.54-.57.36-1.02.89-1.35,1.58-.34.7-.5,1.55-.5,2.57s.17,1.87.51,2.57c.34.7.8,1.23,1.38,1.58.58.36,1.23.54,1.96.54.67,0,1.26-.14,1.77-.43.51-.29.91-.69,1.2-1.22.29-.53.43-1.15.43-1.87l.43.09h-3.52v-1.26h4.46v1.26c0,.96-.21,1.8-.62,2.51-.41.71-.97,1.26-1.69,1.65s-1.54.59-2.47.59c-1.04,0-1.95-.24-2.73-.73s-1.39-1.18-1.83-2.08-.65-1.97-.65-3.2c0-.93.12-1.76.38-2.5.25-.74.6-1.37,1.06-1.89.46-.52,1-.92,1.62-1.2s1.31-.42,2.06-.42c.62,0,1.19.09,1.73.28.54.19,1.01.45,1.43.78.42.34.77.74,1.05,1.21.28.47.48.98.58,1.55h-1.46Z"/><path class="cls-10" d="M71.24,90.1v-11.71h1.42v5.21h6.24v-5.21h1.42v11.71h-1.42v-5.24h-6.24v5.24h-1.42Z"/><path class="cls-10" d="M86.53,79.66v-1.26h8.78v1.26h-3.68v10.45h-1.42v-10.45h-3.68Z"/><path class="cls-10" d="M107.93,81.32c-.07-.58-.35-1.03-.83-1.35-.49-.32-1.09-.48-1.79-.48-.52,0-.97.08-1.36.25-.39.17-.69.4-.9.69-.21.29-.32.63-.32,1,0,.31.08.58.23.8s.34.41.58.55.48.27.74.36c.26.09.5.17.71.23l1.19.32c.3.08.64.19,1.02.33s.73.33,1.08.57c.34.24.63.55.85.93s.34.84.34,1.39c0,.63-.16,1.2-.49,1.71s-.81.92-1.44,1.22c-.63.3-1.4.45-2.29.45-.84,0-1.56-.14-2.18-.41s-1.09-.65-1.44-1.13c-.35-.48-.55-1.05-.59-1.69h1.46c.04.44.19.81.45,1.09.26.29.59.5.99.64.4.14.84.21,1.3.21.54,0,1.03-.09,1.46-.27.43-.18.77-.42,1.02-.74.25-.32.38-.69.38-1.12,0-.39-.11-.71-.33-.95-.22-.24-.5-.44-.86-.59s-.74-.29-1.15-.4l-1.44-.41c-.91-.26-1.64-.64-2.17-1.13-.53-.49-.8-1.13-.8-1.92,0-.66.18-1.23.53-1.72.36-.49.84-.87,1.44-1.14s1.28-.41,2.03-.41,1.43.13,2.01.4c.59.27,1.05.64,1.4,1.1.34.46.53.99.54,1.58h-1.37Z"/><path class="cls-10" d="M124.37,90.1v-11.71h7.02v1.26h-5.6v3.96h5.08v1.26h-5.08v5.24h-1.42Z"/><path class="cls-10" d="M137.83,90.1v-11.71h3.96c.91,0,1.66.16,2.25.47.59.31,1.02.74,1.3,1.28.28.54.42,1.16.42,1.85s-.14,1.3-.42,1.83c-.28.53-.71.95-1.3,1.25-.58.3-1.33.45-2.23.45h-3.2v-1.28h3.15c.62,0,1.13-.09,1.51-.27.38-.18.66-.44.83-.78.17-.34.26-.74.26-1.21s-.09-.88-.26-1.23-.46-.62-.84-.81-.89-.29-1.53-.29h-2.49v10.45h-1.42ZM143.34,84.84l2.88,5.26h-1.65l-2.84-5.26h1.6Z"/><path class="cls-10" d="M162.02,84.25c0,1.23-.22,2.3-.67,3.2s-1.06,1.59-1.83,2.08-1.67.73-2.66.73-1.88-.24-2.66-.73-1.39-1.18-1.84-2.08-.67-1.97-.67-3.2.22-2.3.67-3.2,1.06-1.59,1.84-2.08c.78-.49,1.66-.73,2.66-.73s1.89.24,2.66.73c.78.49,1.39,1.18,1.83,2.08s.67,1.97.67,3.2ZM160.65,84.25c0-1.01-.17-1.87-.51-2.57-.34-.7-.79-1.23-1.37-1.58-.57-.36-1.21-.54-1.92-.54s-1.35.18-1.92.54c-.57.36-1.03.89-1.37,1.58s-.51,1.55-.51,2.57.17,1.87.51,2.57.79,1.23,1.37,1.58c.57.36,1.21.54,1.92.54s1.35-.18,1.92-.54c.57-.36,1.03-.89,1.37-1.58.34-.7.51-1.55.51-2.57Z"/><path class="cls-10" d="M168.42,78.4h1.69l3.98,9.72h.14l3.98-9.72h1.69v11.71h-1.33v-8.89h-.11l-3.66,8.89h-1.28l-3.66-8.89h-.12v8.89h-1.33v-11.71Z"/><path class="cls-10" d="M195.3,90.1v-11.71h7.06v1.26h-5.65v3.96h5.28v1.26h-5.28v3.98h5.74v1.26h-7.16Z"/><path class="cls-10" d="M209.43,78.4l3.47,9.85h.14l3.47-9.85h1.49l-4.3,11.71h-1.46l-4.3-11.71h1.49Z"/><path class="cls-10" d="M223.86,90.1v-11.71h7.06v1.26h-5.65v3.96h5.28v1.26h-5.28v3.98h5.74v1.26h-7.16Z"/><path class="cls-10" d="M237.5,90.1v-11.71h3.96c.92,0,1.67.16,2.25.47.59.31,1.02.74,1.3,1.28.28.54.42,1.16.42,1.85s-.14,1.3-.42,1.83c-.28.53-.71.95-1.3,1.25-.58.3-1.33.45-2.23.45h-3.2v-1.28h3.16c.62,0,1.13-.09,1.51-.27.38-.18.66-.44.83-.78.17-.34.26-.74.26-1.21s-.09-.88-.26-1.23c-.17-.35-.46-.62-.84-.81s-.89-.29-1.53-.29h-2.49v10.45h-1.42ZM243.01,84.84l2.88,5.26h-1.65l-2.83-5.26h1.6Z"/><path class="cls-10" d="M250.42,78.4h1.62l3.25,5.46h.14l3.25-5.46h1.62l-4.23,6.88v4.82h-1.42v-4.82l-4.23-6.88Z"/><path class="cls-10" d="M284.12,82.06h-1.42c-.08-.41-.23-.77-.44-1.07-.21-.31-.46-.57-.75-.78-.3-.21-.62-.37-.98-.48-.36-.11-.73-.16-1.12-.16-.71,0-1.35.18-1.92.54-.57.36-1.03.89-1.37,1.58s-.51,1.55-.51,2.57.17,1.87.51,2.57.79,1.23,1.37,1.58c.57.36,1.21.54,1.92.54.39,0,.76-.05,1.12-.16.36-.11.68-.27.98-.48.29-.21.54-.47.75-.78.21-.31.35-.67.44-1.07h1.42c-.11.6-.3,1.13-.58,1.61-.28.47-.63.87-1.05,1.2-.42.33-.89.58-1.41.75-.52.17-1.07.26-1.67.26-1,0-1.88-.24-2.66-.73s-1.39-1.18-1.84-2.08-.67-1.97-.67-3.2.22-2.3.67-3.2,1.06-1.59,1.84-2.08c.78-.49,1.66-.73,2.66-.73.59,0,1.15.08,1.67.26s.99.42,1.41.75c.42.33.77.73,1.05,1.2.28.47.48,1.01.58,1.61Z"/><path class="cls-10" d="M300.3,84.25c0,1.23-.22,2.3-.67,3.2s-1.06,1.59-1.83,2.08-1.67.73-2.66.73-1.88-.24-2.66-.73-1.39-1.18-1.84-2.08-.67-1.97-.67-3.2.22-2.3.67-3.2,1.06-1.59,1.84-2.08c.78-.49,1.66-.73,2.66-.73s1.89.24,2.66.73c.78.49,1.39,1.18,1.83,2.08s.67,1.97.67,3.2ZM298.93,84.25c0-1.01-.17-1.87-.51-2.57-.34-.7-.79-1.23-1.37-1.58-.57-.36-1.21-.54-1.92-.54s-1.35.18-1.92.54c-.57.36-1.03.89-1.37,1.58s-.51,1.55-.51,2.57.17,1.87.51,2.57.79,1.23,1.37,1.58c.57.36,1.21.54,1.92.54s1.35-.18,1.92-.54c.57-.36,1.03-.89,1.37-1.58.34-.7.51-1.55.51-2.57Z"/><path class="cls-10" d="M315.99,78.4v11.71h-1.37l-6.38-9.19h-.11v9.19h-1.42v-11.71h1.37l6.4,9.21h.11v-9.21h1.39Z"/><path class="cls-10" d="M323.32,78.4l3.47,9.85h.14l3.47-9.85h1.49l-4.3,11.71h-1.46l-4.3-11.71h1.49Z"/><path class="cls-10" d="M337.75,90.1v-11.71h7.06v1.26h-5.65v3.96h5.28v1.26h-5.28v3.98h5.74v1.26h-7.16Z"/><path class="cls-10" d="M351.4,90.1v-11.71h3.96c.91,0,1.66.16,2.25.47.59.31,1.02.74,1.3,1.28.28.54.42,1.16.42,1.85s-.14,1.3-.42,1.83c-.28.53-.71.95-1.3,1.25-.58.3-1.33.45-2.23.45h-3.2v-1.28h3.15c.62,0,1.13-.09,1.51-.27.38-.18.66-.44.83-.78.17-.34.26-.74.26-1.21s-.09-.88-.26-1.23-.46-.62-.84-.81-.89-.29-1.53-.29h-2.49v10.45h-1.42ZM356.91,84.84l2.88,5.26h-1.65l-2.84-5.26h1.6Z"/><path class="cls-10" d="M372.11,81.32c-.07-.58-.35-1.03-.83-1.35-.49-.32-1.09-.48-1.79-.48-.52,0-.97.08-1.36.25-.39.17-.69.4-.9.69-.21.29-.32.63-.32,1,0,.31.07.58.22.8s.34.41.58.55.48.27.74.36c.26.09.5.17.71.23l1.19.32c.3.08.64.19,1.02.33s.74.33,1.08.57c.35.24.63.55.86.93s.34.84.34,1.39c0,.63-.17,1.2-.5,1.71-.33.51-.81.92-1.44,1.22-.63.3-1.39.45-2.29.45-.84,0-1.56-.14-2.17-.41s-1.09-.65-1.44-1.13c-.35-.48-.54-1.05-.59-1.69h1.46c.04.44.19.81.45,1.09.26.29.59.5.99.64.4.14.84.21,1.3.21.54,0,1.03-.09,1.46-.27.43-.18.77-.42,1.02-.74s.38-.69.38-1.12c0-.39-.11-.71-.33-.95-.22-.24-.5-.44-.86-.59-.36-.15-.74-.29-1.15-.4l-1.44-.41c-.91-.26-1.64-.64-2.17-1.13-.53-.49-.8-1.13-.8-1.92,0-.66.18-1.23.54-1.72.36-.49.84-.87,1.44-1.14s1.28-.41,2.03-.41,1.42.13,2.01.4c.59.27,1.05.64,1.4,1.1.35.46.53.99.55,1.58h-1.37Z"/><path class="cls-10" d="M380.48,90.1h-1.49l4.3-11.71h1.46l4.3,11.71h-1.49l-3.5-9.85h-.09l-3.5,9.85ZM381.03,85.53h5.99v1.26h-5.99v-1.26Z"/><path class="cls-10" d="M392.89,79.66v-1.26h8.78v1.26h-3.68v10.45h-1.42v-10.45h-3.68Z"/><path class="cls-10" d="M409.3,78.4v11.71h-1.42v-11.71h1.42Z"/><path class="cls-10" d="M426.04,84.25c0,1.23-.22,2.3-.67,3.2-.45.9-1.06,1.59-1.84,2.08s-1.66.73-2.66.73-1.89-.24-2.66-.73-1.39-1.18-1.83-2.08c-.45-.9-.67-1.97-.67-3.2s.22-2.3.67-3.2c.45-.9,1.06-1.59,1.83-2.08.78-.49,1.67-.73,2.66-.73s1.88.24,2.66.73c.78.49,1.39,1.18,1.84,2.08.45.9.67,1.97.67,3.2ZM424.67,84.25c0-1.01-.17-1.87-.51-2.57-.34-.7-.79-1.23-1.37-1.58-.57-.36-1.21-.54-1.92-.54s-1.35.18-1.92.54c-.57.36-1.03.89-1.37,1.58-.34.7-.51,1.55-.51,2.57s.17,1.87.51,2.57c.34.7.79,1.23,1.37,1.58.57.36,1.21.54,1.92.54s1.35-.18,1.92-.54c.57-.36,1.03-.89,1.37-1.58.34-.7.51-1.55.51-2.57Z"/><path class="cls-10" d="M441.72,78.4v11.71h-1.37l-6.38-9.19h-.11v9.19h-1.42v-11.71h1.37l6.4,9.21h.11v-9.21h1.39Z"/><path class="cls-9" d="M105.75,47.23l.05-.11c1.36-3.08,4.87-4.63,8.04-3.5,3.5,1.25,7.3,1.98,10.77,1.98,4.69,0,6.37-.98,6.37-2.66,0-6.16-27.08-1.19-27.08-19.45,0-9.1,7.63-16.51,22.81-16.51,4,0,8.08.52,11.81,1.57,3.71,1.05,5.65,5.14,4.17,8.71h0c-1.29,3.11-4.76,4.7-7.96,3.67-2.82-.91-5.54-1.35-8.15-1.35-4.83,0-6.37,1.4-6.37,3.08,0,5.88,27.08.98,27.08,19.03,0,8.96-7.63,16.51-22.81,16.51-5.14,0-10.3-.8-14.64-2.14-3.73-1.15-5.66-5.26-4.08-8.83Z"/><path class="cls-8" d="M111.96,35.8c1.66-.08,3.31-.34,4.87-.74,3.8-.96,10.38-4.16,9.97-8.96-3.79-.78-6.59-1.56-6.59-3.45,0-1.68,1.54-3.08,6.37-3.08,2.61,0,5.33.45,8.15,1.35,3.21,1.03,6.67-.56,7.96-3.67h0c1.48-3.56-.45-7.66-4.17-8.71-3.73-1.05-7.81-1.57-11.81-1.57-15.19,0-22.81,7.42-22.81,16.51,0,6.6,3.54,10.15,8.05,12.31Z"/><path class="cls-7" d="M25.3,20.55v8.4h14.2c3.44,0,6.23,2.79,6.23,6.23h0c0,3.44-2.79,6.23-6.23,6.23h-14.2v15.67h-9.11c-4.09,0-7.41-3.32-7.41-7.41v-29.26c0-6.8,5.51-12.31,12.31-12.31h27.5v3.64c0,4.87-3.95,8.81-8.81,8.81h-14.49Z"/><path class="cls-6" d="M17.95,8.1h7.35v48.98h-11c-3.04,0-5.51-2.47-5.51-5.51V17.26c0-5.06,4.11-9.16,9.16-9.16Z"/><path class="cls-3" d="M159.09,20.9h-14.34v-2.8c0-5.53,4.48-10,10-10h35.2v4.19c0,4.76-3.86,8.61-8.61,8.61h-5.73v27.38c0,4.86-3.94,8.8-8.8,8.8h-7.71V20.9Z"/><path class="cls-4" d="M152.19,8.1h37.76v6.4c0,3.54-2.87,6.41-6.41,6.41h-38.79v-5.36c0-4.11,3.34-7.44,7.44-7.44Z"/><path class="cls-2" d="M47.69,32.59c0-14.83,11.69-25.61,27.64-25.61s27.64,10.78,27.64,25.61-11.69,25.61-27.64,25.61-27.64-10.78-27.64-25.61ZM86.31,32.59c0-7.63-4.9-12.25-10.98-12.25s-10.98,4.62-10.98,12.25,4.9,12.25,10.98,12.25,10.98-4.62,10.98-12.25Z"/><path class="cls-1" d="M95.23,14.33c-5.95.52-11.62,3.02-13.56,8.03,2.81,2.05,4.64,5.58,4.64,10.23,0,7.63-4.9,12.25-10.98,12.25-2.74,0-5.24-.95-7.16-2.67-2.61,3.32-6.82,5.35-11.37,6.22-1.06.2-2.15.37-3.25.5,4.95,5.79,12.66,9.32,21.78,9.32,15.95,0,27.64-10.78,27.64-25.61,0-7.36-2.88-13.72-7.74-18.26Z"/><path class="cls-10" d="M304.53,13.98c-1.56-2.49-3.68-4.41-6.37-5.74-2.69-1.33-5.69-2-9-2h-20.97c-.53,0-.97.43-.97.97v50.39c0,.53.43.97.97.97h9.78c.53,0,.97-.43.97-.97v-17.11c0-.53.43-.97.97-.97h9.26c3.31,0,6.31-.67,9-2,2.69-1.33,4.82-3.25,6.37-5.74,1.56-2.49,2.33-5.45,2.33-8.86s-.78-6.43-2.33-8.93ZM294.12,26.99c-.69,1.14-1.62,1.99-2.78,2.56-1.16.57-2.46.85-3.89.85h-7.56c-.53,0-.97-.43-.97-.97v-13.11c0-.53.43-.97.97-.97h7.56c1.43,0,2.73.28,3.89.85,1.16.57,2.09,1.42,2.78,2.56.69,1.14,1.04,2.52,1.04,4.15s-.35,2.94-1.04,4.08Z"/><path class="cls-10" d="M328.8,59.37c-3.26,0-6.19-.69-8.78-2.08-2.59-1.38-4.61-3.27-6.04-5.67-1.43-2.4-2.15-5.15-2.15-8.26v-19.86c0-.53.43-.97.97-.97h9.48c.53,0,.97.43.97.97v19.71c0,1.24.22,2.31.67,3.22.44.91,1.09,1.62,1.93,2.11.84.49,1.83.74,2.96.74,1.68,0,3-.54,3.96-1.63.96-1.09,1.45-2.57,1.45-4.45v-19.71c0-.53.43-.97.97-.97h9.48c.53,0,.97.43.97.97v19.86c0,3.16-.7,5.94-2.11,8.34-1.41,2.4-3.37,4.27-5.89,5.63-2.52,1.36-5.46,2.04-8.82,2.04Z"/><path class="cls-10" d="M352.66,57.59V5.72c0-.53.43-.97.97-.97h9.48c.53,0,.97.43.97.97v51.87c0,.53-.43.97-.97.97h-9.48c-.53,0-.97-.43-.97-.97Z"/><path class="cls-10" d="M385.19,59.52c-2.13,0-4.22-.28-6.3-.85-2.08-.57-3.98-1.36-5.71-2.37-1.41-.83-2.68-1.76-3.8-2.81-.4-.38-.43-1.01-.04-1.4l5.16-5.16c.36-.36.94-.38,1.32-.04,1.08.98,2.28,1.77,3.61,2.37,1.61.72,3.4,1.07,5.37,1.07,1.23,0,2.21-.2,2.93-.59.72-.39,1.07-.96,1.07-1.7,0-.89-.42-1.54-1.26-1.96-.84-.42-1.94-.81-3.3-1.19-1.36-.37-2.78-.79-4.26-1.26-1.48-.47-2.89-1.1-4.22-1.89-1.33-.79-2.42-1.88-3.26-3.26-.84-1.38-1.26-3.19-1.26-5.41s.59-4.34,1.78-6.04c1.19-1.7,2.86-3.05,5.04-4.04,2.17-.99,4.77-1.48,7.78-1.48s5.83.53,8.45,1.59c2.31.94,4.22,2.27,5.72,4,.33.38.33.96-.03,1.32l-5.14,5.25c-.37.38-.99.39-1.36,0-.96-.97-2.02-1.68-3.16-2.14-1.41-.57-2.78-.85-4.11-.85s-2.25.2-2.89.59c-.64.4-.96.91-.96,1.56,0,.74.43,1.33,1.3,1.78.86.44,1.95.84,3.26,1.19,1.31.35,2.7.75,4.19,1.22,1.48.47,2.89,1.14,4.22,2,1.33.87,2.42,2,3.26,3.41.84,1.41,1.26,3.25,1.26,5.52,0,3.51-1.32,6.31-3.96,8.41-2.64,2.1-6.21,3.15-10.71,3.15Z"/><path class="cls-10" d="M438.85,30.39c-1.58-2.72-3.73-4.84-6.45-6.37-2.72-1.53-5.88-2.3-9.49-2.3s-6.94.82-9.86,2.45c-2.92,1.63-5.21,3.87-6.89,6.71-1.68,2.84-2.52,6.04-2.52,9.6s.86,6.92,2.59,9.78c1.73,2.87,4.1,5.1,7.11,6.71,3.01,1.6,6.47,2.41,10.38,2.41,3.06,0,5.85-.51,8.37-1.52,2.24-.9,4.19-2.24,5.84-4.02.35-.38.32-.97-.05-1.33l-4.96-4.9c-.37-.37-.97-.37-1.34,0-.93.9-1.98,1.6-3.13,2.1-1.43.62-3.01.93-4.74.93-1.93,0-3.59-.41-5-1.22-1.41-.82-2.5-1.99-3.26-3.52-.02-.05-.05-.1-.07-.14-.3-.63.18-1.37.88-1.37l23.61-.11c.45,0,.84-.32.94-.76.14-.59.24-1.14.29-1.65.07-.72.11-1.42.11-2.11,0-3.51-.79-6.62-2.37-9.34ZM418.43,31.65c1.31-.84,2.85-1.26,4.63-1.26,1.63,0,3.03.37,4.19,1.11,1.16.74,2.04,1.79,2.63,3.15.07.16.14.33.2.5.22.62-.25,1.27-.91,1.28l-12.89.07c-.7,0-1.19-.73-.89-1.36,0,0,0,0,0-.01.72-1.48,1.73-2.64,3.04-3.48Z"/><rect class="cls-5" x="217.85" y="5.13" width="23.87" height="6.89" rx="2.82" ry="2.82" transform="translate(459.57 17.14) rotate(180)"/><rect class="cls-16" x="217.85" y="48.72" width="23.87" height="6.89" rx="2.82" ry="2.82" transform="translate(459.58 104.32) rotate(180)"/><rect class="cls-17" x="212.66" y="15.84" width="38.32" height="6.89" rx="2.82" ry="2.82" transform="translate(463.64 38.56) rotate(180)"/><rect class="cls-12" x="198.34" y="15.84" width="11.55" height="6.89" rx="2.82" ry="2.82" transform="translate(408.23 38.56) rotate(180)"/><rect class="cls-11" x="198.34" y="5.11" width="16.54" height="6.89" rx="2.82" ry="2.82" transform="translate(413.21 17.1) rotate(180)"/><rect class="cls-13" x="201.52" y="26.72" width="18.87" height="6.89" rx="2.82" ry="2.82" transform="translate(421.91 60.33) rotate(180)"/><rect class="cls-15" x="198.34" y="37.6" width="11.55" height="6.89" rx="2.82" ry="2.82" transform="translate(408.23 82.09) rotate(180)"/><rect class="cls-14" x="203.27" y="48.54" width="11.55" height="6.89" rx="2.82" ry="2.82" transform="translate(418.1 103.96) rotate(180)"/><rect class="cls-18" x="212.41" y="37.78" width="38.32" height="6.89" rx="2.82" ry="2.82" transform="translate(463.14 82.44) rotate(180)"/><rect class="cls-19" x="222.4" y="26.71" width="35.33" height="6.89" rx="2.82" ry="2.82" transform="translate(480.13 60.3) rotate(180)"/></svg>