<?xml version="1.0" encoding="UTF-8"?><svg id="Layer_1" xmlns="http://www.w3.org/2000/svg" xmlns:xlink="http://www.w3.org/1999/xlink" viewBox="0 0 641 221"><defs><style>.cls-1{fill:url(#linear-gradient-8);}.cls-2{fill:url(#linear-gradient-7);}.cls-3{fill:url(#linear-gradient-5);}.cls-4{fill:url(#linear-gradient-6);}.cls-5{fill:url(#linear-gradient-4);}.cls-6{fill:url(#linear-gradient-3);}.cls-7{fill:url(#linear-gradient-2);}.cls-8{fill:url(#linear-gradient);}</style><linearGradient id="linear-gradient" x1="420.04" y1="199.19" x2="406.77" y2="50.4" gradientUnits="userSpaceOnUse"><stop offset="0" stop-color="#f28c1b"/><stop offset=".06" stop-color="#f0861b"/><stop offset=".7" stop-color="#e24826"/><stop offset="1" stop-color="#dd312a"/></linearGradient><linearGradient id="linear-gradient-2" x1="341.95" y1="69.49" x2="484.91" y2="69.49" xlink:href="#linear-gradient"/><linearGradient id="linear-gradient-3" x1="28.5" y1="106.39" x2="159.7" y2="106.39" xlink:href="#linear-gradient"/><linearGradient id="linear-gradient-4" x1="64.33" y1="170.75" x2="50.93" y2="57.43" xlink:href="#linear-gradient"/><linearGradient id="linear-gradient-5" x1="548.44" y1="191.28" x2="550.51" y2="77.3" xlink:href="#linear-gradient"/><linearGradient id="linear-gradient-6" x1="528.85" y1="79.42" x2="580.25" y2="6.47" xlink:href="#linear-gradient"/><linearGradient id="linear-gradient-7" x1="178.27" y1="220.98" x2="261.99" y2="82.97" xlink:href="#linear-gradient"/><linearGradient id="linear-gradient-8" x1="156.7" y1="118.5" x2="338.86" y2="118.5" xlink:href="#linear-gradient"/></defs><path class="cls-8" d="M348.05,154.64l.16-.36c4.49-10.16,16.04-15.26,26.49-11.53,11.53,4.12,24.05,6.52,35.5,6.52,15.45,0,20.99-3.23,20.99-8.76,0-20.29-89.24-3.92-89.24-64.1,0-29.98,25.13-54.42,75.17-54.42,13.19,0,26.63,1.71,38.92,5.17,12.24,3.45,18.6,16.95,13.73,28.69h0c-4.26,10.25-15.67,15.5-26.24,12.1-9.3-2.99-18.26-4.46-26.87-4.46-15.91,0-20.99,4.61-20.99,10.15,0,19.37,89.24,3.23,89.24,62.72,0,29.51-25.13,54.42-75.17,54.42-16.93,0-33.94-2.63-48.26-7.04-12.3-3.79-18.64-17.33-13.44-29.1Z"/><path class="cls-7" d="M368.48,116.98c5.46-.26,10.89-1.13,16.04-2.43,12.51-3.18,34.2-13.72,32.86-29.54-12.5-2.58-21.72-5.14-21.72-11.35,0-5.53,5.08-10.15,20.99-10.15,8.61,0,17.57,1.47,26.87,4.46,10.57,3.4,21.98-1.85,26.24-12.1h0c4.87-11.74-1.49-25.24-13.73-28.69-12.3-3.47-25.74-5.17-38.92-5.17-50.04,0-75.17,24.44-75.17,54.42,0,21.74,11.66,33.46,26.53,40.56Z"/><path class="cls-6" d="M82.92,66.73v27.67h46.81c11.33,0,20.52,9.19,20.52,20.52h0c0,11.33-9.19,20.52-20.52,20.52h-46.81v51.65h-30.01c-13.48,0-24.41-10.93-24.41-24.41v-96.41c0-22.41,18.17-40.58,40.58-40.58h90.62v12c0,16.04-13,29.04-29.04,29.04h-47.75Z"/><path class="cls-5" d="M58.69,25.69h24.22v161.4h-36.25c-10.02,0-18.16-8.14-18.16-18.16V55.88c0-16.66,13.53-30.19,30.19-30.19Z"/><path class="cls-3" d="M523.81,67.88h-47.26v-9.22c0-18.21,14.76-32.97,32.97-32.97h115.98v13.81c0,15.68-12.71,28.38-28.38,28.38h-18.89v90.21c0,16.02-12.98,29-29,29h-25.42v-119.21Z"/><path class="cls-4" d="M501.08,25.69h124.42v21.07c0,11.66-9.46,21.12-21.12,21.12h-127.83v-17.66c0-13.54,10.99-24.53,24.53-24.53Z"/><path class="cls-2" d="M156.7,106.39c0-48.88,38.51-84.39,91.08-84.39s91.08,35.51,91.08,84.39-38.51,84.39-91.08,84.39-91.08-35.51-91.08-84.39ZM283.98,106.39c0-25.13-16.13-40.35-36.2-40.35s-36.2,15.22-36.2,40.35,16.13,40.35,36.2,40.35,36.2-15.22,36.2-40.35Z"/><path class="cls-1" d="M313.37,46.21c-19.6,1.7-38.28,9.94-44.69,26.46,9.26,6.75,15.3,18.37,15.3,33.73,0,25.13-16.13,40.35-36.2,40.35-9.04,0-17.26-3.12-23.59-8.81-8.6,10.94-22.47,17.63-37.46,20.51-3.5.67-7.08,1.21-10.71,1.63,16.3,19.07,41.71,30.71,71.76,30.71,52.57,0,91.08-35.51,91.08-84.39,0-24.26-9.5-45.22-25.49-60.18Z"/></svg>